<?xml version="1.0" encoding="UTF-8" standalone="no"?>
<!-- Generator: Adobe Illustrator 17.0.0, SVG Export Plug-In . SVG Version: 6.00 Build 0)  -->
<!DOCTYPE svg  PUBLIC '-//W3C//DTD SVG 1.1//EN'  'http://www.w3.org/Graphics/SVG/1.1/DTD/svg11.dtd'>
<svg id="Layer_1" xmlns="http://www.w3.org/2000/svg" xml:space="preserve" height="36px" viewBox="0 -2 182.833 36" width="182.83px" version="1.1" y="0px" x="0px" xmlns:xlink="http://www.w3.org/1999/xlink" enable-background="new 0 -2 182.833 36">
	<path d="m6.336 29.458c-1.72-0.807-3.028-1.921-3.925-3.342-0.897-1.42-1.346-3.043-1.346-4.866 0-0.778 0.089-1.585 0.268-2.422l3.726-17.498h8.434l-3.59 16.867c-0.179 0.837-0.269 1.57-0.269 2.199 0 1.107 0.344 1.899 1.032 2.377s1.809 0.717 3.364 0.717c1.885 0 3.305-0.404 4.262-1.211s1.645-2.169 2.064-4.082l3.59-16.869h8.434l-3.769 17.766c-0.837 4.037-2.556 6.975-5.159 8.816-2.601 1.839-6.251 2.759-10.946 2.759-2.394 0.001-4.45-0.403-6.17-1.211z" fill="#48546D"/>
	<path d="m28.925 26.004l16.464-18.214h-11.889l1.346-6.46h22.97l-0.897 4.397-16.285 18.034h12.696l-1.346 6.46h-23.912l0.853-4.217z" fill="#48546D"/>
	<path d="m62.054 29.458c-1.72-0.807-3.028-1.921-3.925-3.342-0.897-1.42-1.346-3.043-1.346-4.866 0-0.778 0.089-1.585 0.268-2.422l3.725-17.498h8.434l-3.589 16.869c-0.179 0.837-0.269 1.57-0.269 2.199 0 1.107 0.344 1.899 1.032 2.377s1.809 0.717 3.364 0.717c1.885 0 3.305-0.404 4.262-1.211s1.645-2.169 2.064-4.082l3.59-16.869h8.434l-3.769 17.766c-0.837 4.037-2.556 6.975-5.159 8.816-2.601 1.839-6.251 2.759-10.946 2.759-2.394-0.001-4.451-0.405-6.17-1.213z" fill="#48546D"/>
	<path d="m91.909 1.33h7.178l7.671 15.298 3.23-15.298h8.434l-6.101 28.891h-7.223l-7.627-15.253-3.23 15.253h-8.434l6.1-28.891z" fill="#48546D"/>
	<path d="m122.46 1.33h21.714l-1.302 6.28h-13.28l-1.076 4.98h11.573l-1.345 6.371h-11.574l-2.377 11.26h-8.434l6.1-28.891z" fill="#F63D38"/>
	<path d="m163.91 7.611h-8.12l1.302-6.28h24.674l-1.302 6.28h-8.12l-4.8 22.61h-8.434l4.8-22.61z" fill="#F63D38"/>
	<g fill="#F63D38">
		<polygon points="153.52 7.617 154.85 1.33 146.42 1.33 144.61 9.869"/>
		<polygon points="144.44 10.688 140.32 30.221 148.75 30.221 152.88 10.688"/>
	</g>
</svg>
