<?xml version="1.0" encoding="UTF-8" standalone="no"?>
<!-- Generator: Adobe Illustrator 17.0.0, SVG Export Plug-In . SVG Version: 6.00 Build 0)  -->
<!DOCTYPE svg  PUBLIC '-//W3C//DTD SVG 1.1//EN'  'http://www.w3.org/Graphics/SVG/1.1/DTD/svg11.dtd'>
<svg id="Layer_1" xmlns="http://www.w3.org/2000/svg" xml:space="preserve" height="34px" viewBox="0 0 54.625 34" width="54.625px" version="1.1" y="0px" x="0px" xmlns:xlink="http://www.w3.org/1999/xlink" enable-background="new 0 0 54.625 34">
			<circle cy="17" cx="16.572" r="16" fill="#ED1C2E"/>
				<path d="m38.053 1c-4.135 0-7.902 1.568-10.741 4.142-0.577 0.524-1.117 1.091-1.615 1.693h3.232c0.442 0.537 0.849 1.103 1.22 1.694h-5.673c-0.339 0.544-0.648 1.109-0.922 1.694h7.516c0.257 0.549 0.483 1.114 0.678 1.694h-8.871c-0.185 0.552-0.341 1.117-0.465 1.694h9.8c0.235 1.092 0.36 2.225 0.36 3.388 0 1.776-0.289 3.486-0.824 5.083h-8.871c0.194 0.58 0.421 1.145 0.677 1.694h7.516c-0.274 0.585-0.582 1.15-0.923 1.694h-5.671c0.37 0.59 0.778 1.156 1.22 1.693h3.232c-0.497 0.604-1.037 1.17-1.616 1.694 2.84 2.573 6.606 4.14 10.741 4.14 8.837 0 16-7.163 16-16 0-8.833-7.163-15.997-16-15.997z" fill="#FCB131"/>
		<g fill="#003473">
			<path d="m12.836 18.752c-0.182-0.021-0.263-0.028-0.388-0.028-0.984 0-1.482 0.338-1.482 1.005 0 0.411 0.243 0.672 0.622 0.672 0.708 0.001 1.218-0.673 1.248-1.649zm1.263 2.941h-1.439l0.033-0.684c-0.439 0.54-1.025 0.798-1.821 0.798-0.941 0-1.587-0.735-1.587-1.803 0-1.607 1.123-2.545 3.049-2.545 0.198 0 0.45 0.018 0.708 0.051 0.054-0.218 0.068-0.31 0.068-0.428 0-0.437-0.303-0.601-1.114-0.601-0.85-0.009-1.551 0.203-1.839 0.297 0.018-0.11 0.241-1.484 0.241-1.484 0.865-0.255 1.436-0.35 2.079-0.35 1.492 0 2.282 0.67 2.28 1.935 0.003 0.339-0.053 0.757-0.141 1.308-0.149 0.957-0.473 3.007-0.517 3.506z"/>
			<polygon points="8.559 21.693 6.821 21.693 7.817 15.454 5.595 21.693 4.411 21.693 4.265 15.489 3.219 21.693 1.593 21.693 2.951 13.577 5.449 13.577 5.6 18.12 7.124 13.577 9.902 13.577"/>
			<path d="m40.199 18.752c-0.182-0.021-0.262-0.028-0.387-0.028-0.985 0-1.483 0.338-1.483 1.005 0 0.411 0.242 0.672 0.622 0.672 0.709 0.001 1.219-0.673 1.248-1.649zm1.265 2.941h-1.439l0.033-0.684c-0.439 0.54-1.025 0.798-1.82 0.798-0.942 0-1.587-0.735-1.587-1.803 0-1.607 1.123-2.545 3.049-2.545 0.197 0 0.449 0.018 0.708 0.051 0.054-0.218 0.067-0.31 0.067-0.428 0-0.437-0.302-0.601-1.113-0.601-0.85-0.009-1.551 0.203-1.84 0.297 0.019-0.11 0.242-1.484 0.242-1.484 0.865-0.255 1.436-0.35 2.077-0.35 1.493 0 2.282 0.67 2.281 1.935 0.003 0.339-0.053 0.757-0.141 1.308-0.15 0.957-0.474 3.007-0.517 3.506z"/>
			<path d="m21.819 21.593c-0.475 0.149-0.846 0.214-1.248 0.214-0.888 0-1.372-0.51-1.372-1.45-0.012-0.292 0.128-1.059 0.238-1.759 0.101-0.617 0.753-4.504 0.753-4.504h1.726l-0.201 0.999h1.043l-0.235 1.586h-1.047c-0.201 1.255-0.486 2.819-0.49 3.026 0 0.34 0.182 0.489 0.595 0.489 0.198 0 0.351-0.02 0.468-0.062l-0.23 1.461z"/>
			<path d="m27.113 21.539c-0.593 0.181-1.165 0.27-1.771 0.268-1.933-0.002-2.941-1.011-2.941-2.944 0-2.256 1.281-3.917 3.022-3.917 1.423 0 2.333 0.93 2.333 2.388 0 0.485-0.062 0.957-0.213 1.623h-3.438c-0.116 0.957 0.496 1.356 1.502 1.356 0.617 0 1.175-0.128 1.795-0.415l-0.289 1.641zm-0.971-3.913c0.01-0.138 0.183-1.178-0.804-1.178-0.55 0-0.943 0.419-1.103 1.178h1.907z"/>
			<path d="m15.141 17.179c0 0.834 0.405 1.41 1.323 1.842 0.703 0.331 0.812 0.429 0.812 0.728 0 0.411-0.31 0.598-0.997 0.598-0.519 0-1.001-0.081-1.557-0.261 0 0-0.228 1.455-0.239 1.525 0.395 0.086 0.747 0.165 1.808 0.195 1.833 0 2.679-0.698 2.679-2.206 0-0.907-0.354-1.439-1.224-1.84-0.728-0.334-0.812-0.409-0.812-0.717 0-0.357 0.289-0.539 0.85-0.539 0.341 0 0.807 0.036 1.248 0.099l0.247-1.531c-0.45-0.072-1.132-0.128-1.529-0.128-1.942 0.001-2.615 1.016-2.609 2.235z"/>
			<path d="m35.561 15.119c0.482 0 0.933 0.125 1.552 0.438l0.284-1.762c-0.255-0.1-1.15-0.687-1.909-0.687-1.162 0-2.146 0.577-2.836 1.528-1.008-0.334-1.423 0.341-1.931 1.013l-0.451 0.105c0.034-0.221 0.065-0.441 0.055-0.664h-1.596c-0.218 2.043-0.604 4.112-0.906 6.156l-0.079 0.444h1.738c0.29-1.885 0.448-3.091 0.546-3.908l0.654-0.363c0.098-0.364 0.403-0.487 1.017-0.472-0.08 0.43-0.123 0.884-0.123 1.353 0 2.159 1.166 3.504 3.036 3.504 0.482 0 0.895-0.063 1.536-0.237l0.305-1.85c-0.576 0.283-1.047 0.416-1.475 0.416-1.01 0-1.621-0.746-1.621-1.977-0.002-1.785 0.907-3.037 2.204-3.037z"/>
			<path d="m50.267 13.577l-0.386 2.345c-0.474-0.625-0.984-1.077-1.658-1.077-0.876 0-1.674 0.664-2.196 1.643-0.728-0.151-1.479-0.408-1.479-0.408l-0.001 0.007c0.058-0.547 0.083-0.88 0.077-0.994h-1.596c-0.217 2.043-0.604 4.112-0.905 6.156l-0.08 0.444h1.738c0.235-1.523 0.414-2.789 0.546-3.792 0.594-0.537 0.891-1.004 1.491-0.973-0.266 0.643-0.421 1.383-0.421 2.141 0 1.65 0.834 2.738 2.097 2.738 0.637 0 1.125-0.22 1.602-0.728l-0.082 0.614h1.644l1.323-8.115h-1.714zm-2.173 6.591c-0.591 0-0.89-0.438-0.89-1.301 0-1.297 0.559-2.217 1.347-2.217 0.597 0 0.921 0.454 0.921 1.293 0 1.308-0.569 2.225-1.378 2.225z"/>
		</g>
			<polygon points="9.059 21.211 7.322 21.211 8.317 14.973 6.095 21.211 4.911 21.211 4.765 15.009 3.719 21.211 2.093 21.211 3.451 13.096 5.949 13.096 6.019 18.12 7.704 13.096 10.402 13.096" fill="#fff"/>
			<path d="m13.336 18.271c-0.182-0.021-0.263-0.027-0.388-0.027-0.985 0-1.483 0.337-1.483 1.004 0 0.411 0.243 0.673 0.623 0.673 0.708 0 1.218-0.674 1.248-1.65zm1.263 2.94h-1.439l0.033-0.683c-0.439 0.54-1.025 0.798-1.821 0.798-0.942 0-1.587-0.736-1.587-1.803 0-1.607 1.123-2.544 3.05-2.544 0.197 0 0.449 0.018 0.708 0.052 0.054-0.218 0.068-0.311 0.068-0.429 0-0.437-0.303-0.599-1.114-0.599-0.85-0.01-1.551 0.202-1.839 0.296 0.018-0.11 0.241-1.484 0.241-1.484 0.865-0.254 1.436-0.35 2.079-0.35 1.492 0 2.282 0.67 2.28 1.935 0.003 0.339-0.053 0.759-0.141 1.308-0.15 0.954-0.474 3.005-0.518 3.503z" fill="#fff"/>
			<path d="m37.897 13.315l-0.284 1.761c-0.62-0.312-1.07-0.438-1.552-0.438-1.297 0-2.207 1.253-2.207 3.041 0 1.232 0.612 1.976 1.621 1.976 0.428 0 0.9-0.132 1.475-0.416l-0.305 1.85c-0.64 0.174-1.053 0.238-1.535 0.238-1.87 0-3.035-1.345-3.035-3.504 0-2.902 1.61-4.929 3.912-4.929 0.76-0.001 1.655 0.32 1.91 0.421z" fill="#fff"/>
			<path d="m40.699 18.271c-0.181-0.021-0.262-0.027-0.387-0.027-0.984 0-1.483 0.337-1.483 1.004 0 0.411 0.243 0.673 0.622 0.673 0.708 0 1.219-0.674 1.248-1.65zm1.264 2.94h-1.439l0.033-0.683c-0.439 0.54-1.025 0.798-1.82 0.798-0.942 0-1.586-0.736-1.586-1.803 0-1.607 1.121-2.544 3.049-2.544 0.197 0 0.449 0.018 0.707 0.052 0.054-0.218 0.068-0.311 0.068-0.429 0-0.437-0.302-0.599-1.113-0.599-0.849-0.01-1.55 0.202-1.839 0.296 0.018-0.11 0.241-1.484 0.241-1.484 0.866-0.254 1.436-0.35 2.079-0.35 1.491 0 2.282 0.67 2.28 1.935 0.004 0.339-0.053 0.759-0.14 1.308-0.152 0.954-0.475 3.005-0.52 3.503z" fill="#fff"/>
			<path d="m22.319 21.111c-0.475 0.149-0.846 0.215-1.248 0.215-0.888 0-1.373-0.511-1.373-1.449-0.012-0.293 0.128-1.059 0.238-1.76 0.1-0.617 0.753-4.504 0.753-4.504h1.726l-0.202 0.999h0.886l-0.236 1.586h-0.889c-0.201 1.256-0.487 2.819-0.49 3.026 0 0.341 0.182 0.489 0.595 0.489 0.198 0 0.351-0.02 0.468-0.062l-0.228 1.46z" fill="#fff"/>
			<path d="m27.613 21.059c-0.593 0.181-1.166 0.268-1.772 0.267-1.933-0.001-2.94-1.011-2.94-2.944 0-2.257 1.281-3.918 3.021-3.918 1.425 0 2.334 0.93 2.334 2.389 0 0.484-0.063 0.956-0.213 1.623h-3.438c-0.117 0.957 0.496 1.357 1.5 1.357 0.618 0 1.176-0.128 1.796-0.416l-0.288 1.642zm-0.97-3.914c0.009-0.138 0.183-1.178-0.804-1.178-0.55 0-0.943 0.42-1.103 1.178h1.907z" fill="#fff"/>
			<path d="m15.641 16.698c0 0.836 0.405 1.41 1.323 1.843 0.703 0.331 0.812 0.429 0.812 0.728 0 0.411-0.31 0.597-0.997 0.597-0.518 0-1-0.081-1.557-0.26 0 0-0.228 1.454-0.238 1.523 0.395 0.086 0.747 0.165 1.807 0.196 1.833 0 2.68-0.698 2.68-2.206 0-0.907-0.354-1.439-1.224-1.839-0.728-0.335-0.812-0.409-0.812-0.717 0-0.357 0.289-0.54 0.85-0.54 0.341 0 0.807 0.038 1.248 0.1l0.247-1.531c-0.45-0.071-1.132-0.129-1.529-0.129-1.944 0.001-2.616 1.015-2.61 2.235z" fill="#fff"/>
			<path d="m51.157 21.211h-1.643l0.081-0.614c-0.477 0.509-0.965 0.729-1.602 0.729-1.262 0-2.097-1.088-2.097-2.739 0-2.195 1.295-4.045 2.826-4.045 0.674 0 1.184 0.275 1.659 0.9l0.385-2.346h1.713l-1.322 8.115zm-2.563-1.525c0.81 0 1.378-0.917 1.378-2.224 0-0.839-0.324-1.294-0.921-1.294-0.788 0-1.347 0.92-1.347 2.217 0 0.865 0.3 1.301 0.89 1.301z" fill="#fff"/>
			<path d="m43.528 14.612c-0.218 2.043-0.604 4.111-0.906 6.156l-0.079 0.444h1.737c0.622-4.036 0.771-4.824 1.746-4.725 0.155-0.826 0.444-1.549 0.659-1.914-0.728-0.152-1.134 0.26-1.666 1.041 0.042-0.338 0.119-0.666 0.104-1.001h-1.595z" fill="#fff"/>
			<path d="m29.229 14.612c-0.218 2.043-0.605 4.111-0.907 6.156l-0.079 0.444h1.738c0.622-4.036 0.771-4.824 1.745-4.725 0.156-0.826 0.445-1.549 0.66-1.914-0.727-0.152-1.134 0.26-1.665 1.041 0.042-0.338 0.119-0.666 0.104-1.001h-1.596z" fill="#fff"/>
				<path d="m51.92 20.695c0-0.287 0.232-0.517 0.516-0.517 0.286 0 0.516 0.231 0.516 0.517 0 0.284-0.231 0.516-0.516 0.516-0.284 0-0.516-0.232-0.516-0.516zm0.516 0.392c0.218 0 0.393-0.176 0.393-0.392 0-0.217-0.176-0.393-0.393-0.393s-0.392 0.176-0.392 0.393c0 0.216 0.175 0.392 0.392 0.392zm-0.069-0.167h-0.106v-0.453h0.192c0.04 0 0.081 0.001 0.115 0.023 0.038 0.025 0.058 0.068 0.058 0.113 0 0.051-0.03 0.099-0.078 0.118l0.083 0.199h-0.118l-0.07-0.179h-0.078v0.179zm0-0.257h0.059c0.021 0 0.046 0.002 0.065-0.009 0.017-0.011 0.026-0.033 0.026-0.052 0-0.017-0.01-0.037-0.025-0.047-0.018-0.01-0.048-0.007-0.067-0.007h-0.057v0.115z" fill="#fff"/>
</svg>
