<?xml version="1.0" encoding="UTF-8" standalone="no"?>
<!-- Generator: Adobe Illustrator 17.0.0, SVG Export Plug-In . SVG Version: 6.00 Build 0)  -->
<!DOCTYPE svg  PUBLIC '-//W3C//DTD SVG 1.1//EN'  'http://www.w3.org/Graphics/SVG/1.1/DTD/svg11.dtd'>
<svg id="Layer_1" xmlns="http://www.w3.org/2000/svg" xml:space="preserve" height="34px" viewBox="-3.708 0 77.667 34" width="77.667px" version="1.1" y="0px" x="0px" xmlns:xlink="http://www.w3.org/1999/xlink" enable-background="new -3.708 0 77.667 34">
	<path d="m24.575 17.761v13.699c0 0.635-0.222 1.173-0.666 1.617s-0.983 0.666-1.617 0.666h-22.831c-0.634 0-1.174-0.222-1.617-0.666-0.444-0.444-0.666-0.983-0.666-1.617v-13.699c0-0.634 0.222-1.173 0.666-1.617s0.983-0.666 1.617-0.666h0.761v-4.566c0-2.917 1.046-5.422 3.139-7.516 2.093-2.093 4.598-3.139 7.515-3.139s5.422 1.046 7.516 3.139c2.093 2.093 3.14 4.599 3.14 7.516v4.566h0.76c0.635 0 1.173 0.222 1.617 0.666 0.445 0.444 0.666 0.983 0.666 1.617zm-19.787-2.283h12.177v-4.566c0-1.681-0.595-3.116-1.784-4.305s-2.624-1.783-4.305-1.783-3.116 0.594-4.304 1.783c-1.189 1.189-1.784 2.624-1.784 4.305v4.566z" fill="#39B54A"/>
<g display="none" fill="#fff">
	<path d="m8.765 26.574c0-0.41-0.153-0.747-0.459-1.009s-0.847-0.496-1.621-0.703c-1.106-0.29-1.957-0.675-2.553-1.152-0.596-0.479-0.894-1.104-0.894-1.88 0-0.798 0.329-1.454 0.988-1.972 0.66-0.517 1.511-0.774 2.553-0.774 1.088 0 1.961 0.293 2.621 0.88 0.659 0.587 0.978 1.291 0.955 2.111l-0.014 0.041h-1.583c0-0.508-0.173-0.919-0.517-1.234-0.345-0.314-0.836-0.473-1.476-0.473-0.603 0-1.065 0.132-1.39 0.394-0.323 0.262-0.485 0.601-0.485 1.017 0 0.375 0.176 0.688 0.527 0.936 0.351 0.249 0.932 0.484 1.743 0.706 1.064 0.285 1.874 0.68 2.427 1.183s0.829 1.145 0.829 1.924c0 0.824-0.329 1.48-0.989 1.968-0.659 0.487-1.525 0.73-2.6 0.73-1.033 0-1.939-0.275-2.719-0.826-0.78-0.55-1.158-1.302-1.136-2.253l0.014-0.041h1.591c0 0.603 0.208 1.053 0.625 1.35s0.959 0.445 1.625 0.445c0.611 0 1.088-0.123 1.428-0.369s0.51-0.579 0.51-0.999z" display="inline"/>
	<path d="m17.52 26.574c0-0.41-0.153-0.747-0.459-1.009s-0.847-0.496-1.621-0.703c-1.107-0.29-1.958-0.675-2.553-1.152-0.596-0.479-0.894-1.104-0.894-1.88 0-0.798 0.329-1.454 0.988-1.972 0.66-0.517 1.511-0.774 2.553-0.774 1.088 0 1.961 0.293 2.621 0.88 0.659 0.587 0.978 1.291 0.955 2.111l-0.014 0.041h-1.584c0-0.508-0.173-0.919-0.517-1.234-0.345-0.314-0.836-0.473-1.476-0.473-0.603 0-1.066 0.132-1.39 0.394-0.324 0.263-0.486 0.602-0.486 1.018 0 0.375 0.176 0.688 0.527 0.936 0.351 0.249 0.932 0.484 1.744 0.706 1.064 0.285 1.874 0.68 2.427 1.183s0.829 1.145 0.829 1.924c0 0.824-0.329 1.48-0.989 1.968-0.659 0.487-1.525 0.73-2.6 0.73-1.034 0-1.94-0.275-2.719-0.826-0.78-0.55-1.158-1.302-1.136-2.253l0.014-0.041h1.591c0 0.603 0.208 1.053 0.625 1.35s0.959 0.445 1.625 0.445c0.611 0 1.088-0.123 1.428-0.369s0.511-0.58 0.511-1z" display="inline"/>
	<path d="m22.564 27.799h4.548v1.325h-6.199v-9.897h1.651v8.572z" display="inline"/>
</g>
<g fill="#39B54A">
	<path d="m33.558 16.265h-1.684v-8.489h-2.051v-1.24l3.735-0.36v10.089z"/>
	<path d="m43.822 16.265h-6.702v-1.163l3.285-3.576c0.536-0.587 0.906-1.068 1.109-1.445s0.305-0.745 0.305-1.105c0-0.453-0.132-0.832-0.395-1.137s-0.619-0.457-1.067-0.457c-0.591 0-1.03 0.166-1.317 0.499s-0.43 0.79-0.43 1.372h-1.629l-0.013-0.043c-0.023-0.896 0.27-1.651 0.88-2.263s1.446-0.918 2.509-0.918c0.97 0 1.737 0.268 2.301 0.804s0.845 1.236 0.845 2.1c0 0.578-0.163 1.13-0.489 1.656-0.326 0.527-0.83 1.167-1.514 1.92l-2.245 2.363 0.021 0.042h4.546v1.351z"/>
	<path d="m51.278 8.836c0 0.508-0.139 0.959-0.416 1.351s-0.654 0.693-1.13 0.901c0.55 0.213 0.988 0.531 1.313 0.956 0.326 0.425 0.489 0.915 0.489 1.469 0 0.937-0.31 1.655-0.929 2.151-0.619 0.497-1.425 0.745-2.419 0.745-1.007 0-1.82-0.248-2.439-0.745s-0.929-1.214-0.929-2.151c0-0.554 0.161-1.044 0.482-1.469s0.761-0.746 1.32-0.963c-0.48-0.203-0.857-0.5-1.13-0.891-0.273-0.39-0.409-0.842-0.409-1.355 0-0.896 0.283-1.588 0.849-2.076 0.566-0.487 1.313-0.731 2.242-0.731 0.919 0 1.667 0.244 2.242 0.731s0.864 1.181 0.864 2.077zm-1.42 4.591c0-0.493-0.158-0.895-0.475-1.204-0.316-0.308-0.72-0.463-1.209-0.463-0.499 0-0.902 0.154-1.209 0.46-0.307 0.307-0.461 0.709-0.461 1.207 0 0.506 0.152 0.906 0.457 1.196 0.305 0.291 0.714 0.435 1.227 0.435 0.494 0 0.896-0.146 1.206-0.439 0.309-0.291 0.464-0.69 0.464-1.192zm-0.264-4.528c0-0.444-0.132-0.807-0.395-1.091s-0.605-0.426-1.026-0.426c-0.434 0-0.777 0.137-1.029 0.412s-0.378 0.643-0.378 1.105c0 0.457 0.128 0.824 0.385 1.098s0.602 0.412 1.036 0.412c0.425 0 0.766-0.137 1.022-0.412s0.385-0.641 0.385-1.098z"/>
	<path d="m54.162 16.265v-10.09h3.354c1.118 0 1.991 0.23 2.62 0.69 0.628 0.46 0.942 1.147 0.942 2.062 0 0.457-0.132 0.866-0.395 1.227-0.263 0.36-0.628 0.628-1.095 0.804 0.601 0.134 1.063 0.423 1.386 0.866s0.485 0.959 0.485 1.545c0 0.947-0.31 1.666-0.929 2.158s-1.474 0.738-2.564 0.738h-3.804zm1.684-5.842h1.857c0.522 0 0.934-0.124 1.237-0.371s0.454-0.597 0.454-1.05c0-0.499-0.159-0.87-0.478-1.112s-0.785-0.364-1.4-0.364h-1.67v2.897zm0 1.254v3.236h2.121c0.582 0 1.03-0.133 1.344-0.397 0.314-0.266 0.471-0.649 0.471-1.151 0-0.535-0.132-0.95-0.395-1.245s-0.675-0.442-1.234-0.442h-2.307z"/>
	<path d="m64.751 16.265h-1.684v-10.09h1.684v10.09z"/>
	<path d="m73.663 7.526h-3.049v8.738h-1.684v-8.738h-3.05v-1.351h7.782v1.351z"/>
</g>
<g fill="#39B54A">
	<path d="m36.433 27.837c0-0.419-0.156-0.761-0.468-1.028s-0.863-0.507-1.653-0.718c-1.127-0.296-1.995-0.687-2.602-1.175s-0.911-1.126-0.911-1.916c0-0.813 0.336-1.483 1.008-2.01s1.54-0.79 2.602-0.79c1.109 0 1.999 0.299 2.672 0.897 0.672 0.598 0.997 1.316 0.974 2.152l-0.014 0.042h-1.615c0-0.517-0.176-0.937-0.527-1.258s-0.852-0.482-1.504-0.482c-0.614 0-1.087 0.134-1.417 0.401-0.33 0.268-0.495 0.613-0.495 1.037 0 0.383 0.179 0.701 0.537 0.955 0.358 0.253 0.951 0.493 1.778 0.718 1.086 0.291 1.91 0.693 2.474 1.206s0.845 1.167 0.845 1.961c0 0.841-0.336 1.51-1.008 2.006-0.672 0.497-1.556 0.745-2.651 0.745-1.053 0-1.977-0.281-2.772-0.842s-1.18-1.327-1.157-2.297l0.014-0.042h1.622c0 0.614 0.213 1.073 0.638 1.376s0.977 0.454 1.656 0.454c0.624 0 1.109-0.125 1.455-0.375s0.519-0.59 0.519-1.017z"/>
	<path d="m45.075 27.837c0-0.419-0.156-0.761-0.468-1.028s-0.863-0.507-1.653-0.718c-1.127-0.296-1.995-0.687-2.602-1.175s-0.911-1.126-0.911-1.916c0-0.813 0.336-1.483 1.008-2.01s1.54-0.79 2.602-0.79c1.109 0 1.999 0.299 2.672 0.897 0.672 0.598 0.997 1.316 0.974 2.152l-0.014 0.042h-1.615c0-0.517-0.176-0.937-0.527-1.258s-0.852-0.482-1.504-0.482c-0.614 0-1.087 0.134-1.417 0.401-0.33 0.268-0.495 0.613-0.495 1.037 0 0.383 0.179 0.701 0.537 0.955 0.358 0.253 0.951 0.493 1.778 0.718 1.086 0.291 1.91 0.693 2.474 1.206s0.845 1.167 0.845 1.961c0 0.841-0.336 1.51-1.008 2.006-0.672 0.497-1.556 0.745-2.651 0.745-1.053 0-1.977-0.281-2.772-0.842s-1.18-1.327-1.157-2.297l0.014-0.042h1.622c0 0.614 0.213 1.073 0.638 1.376s0.977 0.454 1.656 0.454c0.624 0 1.109-0.125 1.455-0.375s0.519-0.59 0.519-1.017z"/>
	<path d="m49.933 29.084h4.636v1.351h-6.32v-10.09h1.684v8.739z"/>
</g>
	<path d="m18.374 21.333c0 0.258-0.092 0.478-0.271 0.657l-7.004 7.005-1.316 1.315c-0.181 0.181-0.4 0.271-0.658 0.271s-0.477-0.09-0.658-0.271l-1.316-1.315-3.502-3.502c-0.181-0.181-0.271-0.4-0.271-0.658s0.09-0.478 0.271-0.658l1.316-1.315c0.18-0.181 0.4-0.271 0.658-0.271s0.477 0.09 0.658 0.271l2.844 2.854 6.347-6.355c0.18-0.181 0.398-0.271 0.656-0.271s0.479 0.091 0.658 0.271l1.316 1.315c0.181 0.179 0.272 0.399 0.272 0.657z" fill="#fff"/>
</svg>
