<?xml version="1.0" encoding="UTF-8" standalone="no"?>
<!-- Generator: Adobe Illustrator 17.0.0, SVG Export Plug-In . SVG Version: 6.00 Build 0)  -->
<!DOCTYPE svg  PUBLIC '-//W3C//DTD SVG 1.1//EN'  'http://www.w3.org/Graphics/SVG/1.1/DTD/svg11.dtd'>
<svg id="Layer_1" xmlns="http://www.w3.org/2000/svg" xml:space="preserve" height="34px" viewBox="0 0 88 34" width="88px" version="1.1" y="0px" x="0px" xmlns:xlink="http://www.w3.org/1999/xlink" enable-background="new 0 0 88 34">
	<g fill="#0066B3">
		<polygon points="38.261 30.534 31.219 30.534 35.62 3.484 42.663 3.484"/>
		<path d="m25.294 3.484l-6.714 18.605-0.794-4.006 0.001 0.001-2.371-12.164s-0.286-2.436-3.341-2.436h-11.098l-0.13 0.458s3.395 0.706 7.366 3.093l6.119 23.5h7.337l11.205-27.05h-7.58z"/>
		<path d="m80.687 30.534h6.466l-5.638-27.05h-5.662c-2.614 0-3.251 2.016-3.251 2.016l-10.502 25.034h7.34l1.468-4.018h8.953l0.826 4.018zm-7.749-9.569l3.7-10.123 2.082 10.123h-5.782z"/>
		<path d="m62.65 9.989l1.005-5.81s-3.101-1.179-6.334-1.179c-3.495 0-11.794 1.528-11.794 8.955 0 6.989 9.741 7.076 9.741 10.745s-8.736 3.014-11.619 0.699l-1.049 6.073s3.144 1.528 7.95 1.528c4.805 0 12.056-2.489 12.056-9.261 0-7.033-9.828-7.688-9.828-10.745 0-3.058 6.858-2.665 9.872-1.005z"/>
	</g>
	<path d="m17.786 18.084l-2.37-12.164s-0.286-2.436-3.341-2.436h-11.098l-0.13 0.458s5.335 1.106 10.453 5.248c4.891 3.959 6.486 8.894 6.486 8.894z" fill="#FAA634"/>
</svg>
