<?xml version="1.0" encoding="UTF-8" standalone="no"?>
<!-- Generator: Adobe Illustrator 17.0.0, SVG Export Plug-In . SVG Version: 6.00 Build 0)  -->
<!DOCTYPE svg  PUBLIC '-//W3C//DTD SVG 1.1//EN'  'http://www.w3.org/Graphics/SVG/1.1/DTD/svg11.dtd'>
<svg id="Layer_1" xmlns="http://www.w3.org/2000/svg" xml:space="preserve" height="34px" viewBox="0 0 34 34" width="34px" version="1.1" y="0px" x="0px" xmlns:xlink="http://www.w3.org/1999/xlink" enable-background="new 0 0 34 34">
	<path d="m16.176 0.02c-8.98 0.427-16.066 7.905-16.038 16.895 0.008 2.738 0.669 5.322 1.835 7.606l-1.79 8.69c-0.097 0.47 0.327 0.882 0.794 0.771l8.515-2.017c2.188 1.09 4.645 1.719 7.246 1.759 9.178 0.14 16.83-7.147 17.116-16.322 0.307-9.835-7.81-17.852-17.678-17.382z" fill="#2FB72F"/>
	<path d="m25.184 20.52l-3.266-0.938c-0.429-0.123-0.892-0.001-1.205 0.317l-0.799 0.814c-0.337 0.343-0.848 0.453-1.294 0.273-1.545-0.625-4.795-3.515-5.625-4.961-0.239-0.417-0.2-0.938 0.094-1.319l0.697-0.902c0.273-0.353 0.331-0.828 0.15-1.237l-1.374-3.108c-0.329-0.744-1.28-0.961-1.902-0.436-0.912 0.771-1.993 1.943-2.125 3.241-0.232 2.288 0.75 5.173 4.461 8.637 4.288 4.002 7.721 4.531 9.957 3.989 1.268-0.307 2.281-1.538 2.921-2.546 0.436-0.687 0.092-1.6-0.69-1.824z" fill="#fff"/>
</svg>
